<svg width="24" height="25" viewBox="0 0 24 25" fill="none" xmlns="http://www.w3.org/2000/svg">
<path d="M11.9475 0C8.99927 0.00866699 6.15591 1.09457 3.9525 3.05335L2.61364 1.7145C2.47318 1.57407 2.29423 1.47845 2.09943 1.43971C1.90462 1.40097 1.70271 1.42086 1.5192 1.49687C1.3357 1.57287 1.17885 1.70157 1.06849 1.8667C0.958119 2.03184 0.89919 2.22598 0.899148 2.4246V7.03074C0.899148 7.29712 1.00497 7.55259 1.19333 7.74095C1.38169 7.92931 1.63716 8.03513 1.90354 8.03513H6.50968C6.7083 8.03509 6.90244 7.97616 7.06758 7.86579C7.23271 7.75543 7.36141 7.59858 7.43741 7.41508C7.51341 7.23157 7.53331 7.02966 7.49457 6.83485C7.45583 6.64005 7.36021 6.4611 7.21978 6.32064L6.0798 5.18065C7.41011 4.04422 9.04164 3.31828 10.7764 3.0909C12.5112 2.86352 14.2747 3.14448 15.853 3.89968C17.4312 4.65489 18.7564 5.85188 19.6677 7.34544C20.579 8.839 21.0373 10.5649 20.987 12.3138C20.9224 14.5736 20.0134 16.7271 18.4393 18.3497C16.8652 19.9723 14.7402 20.9462 12.4835 21.0793C10.2268 21.2125 8.00204 20.4952 6.24808 19.0689C4.49412 17.6426 3.33823 15.6109 3.00837 13.3745C2.96127 13.0108 2.78402 12.6766 2.50943 12.4336C2.23484 12.1905 1.88151 12.0552 1.51484 12.0527C1.30207 12.05 1.09117 12.0926 0.89622 12.1779C0.701269 12.2632 0.526759 12.3891 0.384346 12.5472C0.241933 12.7053 0.134896 12.8919 0.0703862 13.0947C0.00587628 13.2975 -0.0146219 13.5117 0.0102611 13.723C0.4283 16.6819 1.92904 19.3806 4.22207 21.2968C6.51511 23.213 9.43742 24.2105 12.4235 24.0964C15.4445 23.9508 18.3029 22.6854 20.4415 20.5468C22.5801 18.4082 23.8456 15.5497 23.9911 12.5288C24.0534 10.9076 23.788 9.29053 23.211 7.77426C22.634 6.25798 21.7571 4.87364 20.6328 3.70404C19.5084 2.53443 18.1598 1.60358 16.6675 0.967148C15.1752 0.330716 13.5698 0.00177605 11.9475 0Z" fill="black"/>
<path d="M11.4456 7.03064C11.046 7.03064 10.6628 7.18937 10.3802 7.47191C10.0977 7.75445 9.93896 8.13765 9.93896 8.53723V12.8491C9.93908 13.3818 10.1508 13.8927 10.5275 14.2693L12.3284 16.0702C12.6126 16.3446 12.9931 16.4965 13.3881 16.493C13.7832 16.4896 14.161 16.3311 14.4404 16.0518C14.7197 15.7725 14.8782 15.3946 14.8816 14.9996C14.885 14.6046 14.7332 14.224 14.4587 13.9398L12.9521 12.4333V8.53723C12.9521 8.13765 12.7934 7.75445 12.5109 7.47191C12.2283 7.18937 11.8451 7.03064 11.4456 7.03064Z" fill="black"/>
</svg>
