<svg width="24" height="24" viewBox="0 0 24 24" fill="none" xmlns="http://www.w3.org/2000/svg">
<path d="M23.9455 9.95241L23.8725 9.11638L23.0364 9.04338C20.1093 8.78637 17.9202 9.43339 16.5352 10.9635C14.8801 12.7935 14.9351 15.3026 15.0521 16.3807L13 18.4328V11.8395C13.7961 11.2255 15.8731 9.37639 16.0072 6.69428C16.1132 4.56619 14.9861 2.4951 12.657 0.540022L12.014 0L11.371 0.540022C9.04189 2.4951 7.91385 4.56619 8.02085 6.69428C8.15285 9.34339 10.1829 11.1815 11 11.8185V18.4328L8.94789 16.3807C9.06489 15.3036 9.11989 12.7935 7.46483 10.9635C6.07978 9.43339 3.88969 8.78537 0.96358 9.04338L0.127549 9.11638L0.0545459 9.95241C-0.201464 12.8815 0.444561 15.0696 1.97462 16.4537C3.38167 17.7257 5.19374 17.9878 6.44579 17.9878C6.97681 17.9878 7.38783 17.9417 7.64483 17.9047L11 21.2599V24H13V21.2599L16.3552 17.9047C16.6112 17.9417 17.0222 17.9878 17.5542 17.9878C18.8063 17.9878 20.6193 17.7257 22.0254 16.4537C23.5554 15.0686 24.2015 12.8815 23.9455 9.95241Z" fill="black"/>
</svg>
