<svg width="24" height="24" viewBox="0 0 24 24" fill="none" xmlns="http://www.w3.org/2000/svg">
<path d="M11 19H13V23C13 23.553 12.552 24 12 24C11.448 24 11 23.553 11 23V19ZM18.4829 5.157C18.1679 5.09 17.8919 4.786 17.7799 4.385C17.0599 1.803 14.6829 0 12 0C9.31701 0 6.94006 1.803 6.22007 4.385C6.10807 4.786 5.83207 5.09 5.51708 5.157C2.22114 5.869 -0.0978236 8.837 0.00317465 12.215C0.115173 15.956 3.36712 19 7.25105 19H11V15.414L7.29305 11.707C6.90206 11.316 6.90206 10.684 7.29305 10.293C7.68404 9.902 8.31603 9.902 8.70702 10.293L11 12.586V9C11 8.447 11.448 8 12 8C12.552 8 13 8.447 13 9V12.586L15.2929 10.293C15.6839 9.902 16.3159 9.902 16.7069 10.293C17.0979 10.684 17.0979 11.316 16.7069 11.707L13 15.414V19H15.7839C20.4248 19 23.8788 16.146 23.9968 12.215C24.0988 8.837 21.7798 5.869 18.4829 5.157Z" fill="black"/>
</svg>
